<svg xmlns="http://www.w3.org/2000/svg" viewBox="0 0 518.35 123.39"><defs><style>.cls-1{font-size:91px;font-family:Arial-BoldMT, Arial;font-weight:700;letter-spacing:0.11em;}.cls-2{font-size:28px;letter-spacing:0.26em;}</style></defs><g id="Lag_2" data-name="Lag 2"><g id="Lag_1-2" data-name="Lag 1"><text class="cls-1" transform="translate(0 79.25)">Ask epios<tspan class="cls-2"><tspan x="0" y="33.6">Nødplanlægger</tspan></tspan></text><g id="svgg"><path d="M207.29,73c.12-.08,1.25-.7,2.52-1.38s2.33-1.28,2.35-1.32.07-1,.1-2.18.07-3.44.11-5a27.69,27.69,0,0,0,0-4.35s-1.28.75-2.78,1.66-2.74,1.67-2.75,1.69.1,7.33.18,9.71l0,1.34Z"/><path d="M214.73,32.69c-.31-.1.08,2.36,0,5.21s0,4.8-.33,5.27-2.24,1.57-4.91,3.39L201.6,52c-1.42,1-.55.29-2.13,1.4-.79.49-1.27,1.69-1.27,3.38,0,.49,0,1.87.16,4.35s.16,1.93.8,3.14A8.57,8.57,0,0,0,202.24,67l1.85,1c.79.48,1.11.48,1.11-.48v-1c0-.23-.08-.46-.14-2.53s-.31-3.46-.09-3.8c.42-.63.84-.81,1.82-1.39s5.88-3.14,6.68-3.63,2.85-1.78,3.49-2.17c1.75-1.21,2.07-2.17,3.18-4.1,1.28-2.9,1.43-9.42.32-10.87A50.63,50.63,0,0,0,214.73,32.69Z"/><path d="M214.74,65.42c-.48-.24-.7,0-.7.43,0,1.14.19,6-.16,6.57-.77,1.16-3,1.71-6.73,3.75s-5.78,3.25-6.09,3.5c-.63.48-.53,1.26-.5,2.49a4.64,4.64,0,0,0,.19,1.85.71.71,0,0,0,.63.24l10.53-3.83,4.4-1.62a15.07,15.07,0,0,0,3.2-2c.69-.33,1.11-5.79.16-7.48C219.67,67.84,214.8,65.45,214.74,65.42Z"/><path d="M209.5,43.42l3.15-2.19S213,29.6,213,28.31V28a.35.35,0,0,0-.13-.29l-.62-.39-1-.59c-.2-.12-.37,0-2.72,1.44-1.38.87-2.52,1.6-2.53,1.62s.26,15,.31,15.36l0,.38Z"/><path d="M223.48,3.14,223.29,2c-.22-1.3-.49-2.07-.76-2-.48.09-3,1.33-6.94,3.34L210.29,6a7.19,7.19,0,0,0-2.07,1.2L205.61,11l-2.73,4-.06.07-2.23,1.62a11.47,11.47,0,0,0-3,3.14,18,18,0,0,0-1.12,7,13.36,13.36,0,0,0,1.44,7,9,9,0,0,0,2.94,2.9l3.35,2c.13.08.27,0,.33-.18a1.34,1.34,0,0,0,.05-.35c0-.6-.08-2.53-.14-4.94-.06-2.89-.33-4.29,0-5.16.51-1.3,5.92-4.29,6.72-4.25s2.49,1.48,5.46,3.29l4.87,3a.82.82,0,0,0,1-.24l.17-.32a7.57,7.57,0,0,0,.59-.88,12,12,0,0,0-1-1.13c-4.12-4.37-6.35-7.34-7.25-9.66a5.52,5.52,0,0,1-.46-2.26c.25-.38.35-.33,1.11-.33h1.19a.18.18,0,0,0,.16-.1l1.7-2.82c2-3.33,1.79-3.14,2.39-2a11.88,11.88,0,0,1,1.19,5c.05,1,.05,1,.21.52a21.88,21.88,0,0,0-.09-8.56l0-.18a1.53,1.53,0,0,1,.21-1.11l.26-.37c.32-.45.49-.75.6-.89l.16-.24C223.8,4.11,223.64,3.86,223.48,3.14ZM212.66,7.68c.52.69-1,3.49-2,4-2.1,1-4.64,1.09-1.17-3.05,1.08-1.28,3.13-1.25,3.17-.93"/></g></g></g></svg>